# xmcd
#
# Track frame offsets:
#	150
#	23348
#	37546
#	52067
#	66986
#	83306
#	114043
#	128231
#	140942
#	154491
#	166896
#	188364
#	204682
#	219152
#	234694
#	254415
#	268491
#	288811
#	300977
#	319234
#	339803
#
# Disc length: 4732 seconds
#
# Revision: 0
# Processed by: cddbd v1.5.2PL0 Copyright (c) Steve Scherf et al.
# Submitted via: EZCDAudioConverter 8.0.2.1
#
DISCID=1d127a15
DTITLE=Rocío Dúrcal - Me Gustas Mucho
DYEAR=1900
DGENRE=
TTITLE0=Y nos dieron las diez
TTITLE1=Me Gustas Mucho
TTITLE2=Así son los hombres
TTITLE3=Se me olvidó otra vez
TTITLE4=No Lastimes Más
TTITLE5=Amor Eterno
TTITLE6=Tarde
TTITLE7=Me Nace Del Corazón
TTITLE8=Fue Un Placer Conocerte
TTITLE9=Te Sigo Amando
TTITLE10=Frente a Frente
TTITLE11=La Gata Bajo la Lluvia
TTITLE12=Fue tan poco tu cariño
TTITLE13=La muerte del palomo
TTITLE14=Como tu mujer
TTITLE15=Cuando Yo Quiera Has De Volver
TTITLE16=La Verdad de La Verdad
TTITLE17=La Media Vuelta
TTITLE18=Porque Te Quiero
TTITLE19=Costumbres
TTITLE20=Caramelito
EXTD=
EXTT0=
EXTT1=
EXTT2=
EXTT3=
EXTT4=
EXTT5=
EXTT6=
EXTT7=
EXTT8=
EXTT9=
EXTT10=
EXTT11=
EXTT12=
EXTT13=
EXTT14=
EXTT15=
EXTT16=
EXTT17=
EXTT18=
EXTT19=
EXTT20=
PLAYORDER=
